<?xml version="1.0" encoding="UTF-8" standalone="no"?>
<!DOCTYPE svg PUBLIC "-//W3C//DTD SVG 1.1//EN" "http://www.w3.org/Graphics/SVG/1.1/DTD/svg11.dtd">
<svg width="100%" height="100%" viewBox="0 0 544 88" version="1.1" xmlns="http://www.w3.org/2000/svg" xmlns:xlink="http://www.w3.org/1999/xlink" xml:space="preserve" xmlns:serif="http://www.serif.com/" style="fill-rule:evenodd;clip-rule:evenodd;stroke-linejoin:round;stroke-miterlimit:2;">
    <g transform="matrix(1,0,0,1,-31.8108,-32.39)">
        <g transform="matrix(0.521776,0,0,0.521776,-14.8626,-14.1623)">
            <g id="Layer_2">
                <g>
                    <path d="M587.113,139.657C578.398,131.313 567.086,127.048 552.993,127.048C538.9,127.048 527.588,131.498 518.687,140.214C509.972,148.929 505.521,159.87 505.521,173.036C505.521,186.943 509.972,198.07 518.687,206.6C527.588,214.944 538.9,219.209 552.808,219.209C566.53,219.209 577.841,214.944 586.742,206.229C591.193,201.964 594.716,196.957 596.941,191.394C599.166,185.831 600.279,179.712 600.279,173.036C600.464,159.314 596.014,148.187 587.113,139.657ZM572.835,193.434C568.013,198.626 561.523,201.222 552.993,201.222C545.576,201.222 538.714,198.626 533.522,193.248C528.33,187.685 526.105,181.01 526.105,173.036C526.105,164.877 528.701,158.016 533.708,152.823C538.714,147.631 545.205,145.035 552.993,145.035C560.41,145.035 566.901,147.631 572.093,152.823C577.285,158.016 579.696,164.691 579.696,173.036C579.881,181.38 577.47,188.056 572.835,193.434Z" style="fill:rgb(29,29,27);fill-rule:nonzero;"/>
                    <path d="M659.989,167.102L634.77,167.102L634.77,146.704L663.883,146.704C665.366,146.704 666.479,145.591 666.479,144.108L666.479,131.127C666.479,129.644 665.366,128.531 663.883,128.531L617.895,128.531C616.411,128.531 615.299,129.644 615.299,131.127L615.299,215.13C615.299,216.613 616.411,217.726 617.895,217.726L632.173,217.726C633.657,217.726 634.77,216.613 634.77,215.13L634.77,185.274L659.989,185.274C661.472,185.274 662.585,184.162 662.585,182.678L662.585,169.698C662.399,168.4 661.287,167.102 659.989,167.102Z" style="fill:rgb(29,29,27);fill-rule:nonzero;"/>
                    <path d="M702.454,146.704L702.454,215.315C702.454,216.798 703.567,217.911 705.051,217.911L719.329,217.911C720.813,217.911 721.925,216.798 721.925,215.315L721.925,146.704L746.588,146.704C748.071,146.704 749.184,145.591 749.184,144.108L749.184,131.127C749.184,129.644 748.071,128.531 746.588,128.531L677.977,128.531C676.493,128.531 675.381,129.644 675.381,131.127L675.381,144.108C675.381,145.591 676.493,146.704 677.977,146.704L702.454,146.704Z" style="fill:rgb(29,29,27);fill-rule:nonzero;"/>
                    <path d="M783.305,181.01C787.756,183.049 791.094,185.275 793.504,187.314C795.73,189.354 797.028,191.394 797.028,193.619C797.028,196.03 796.1,197.884 794.431,199.368C792.763,200.666 790.537,201.407 787.756,201.407C784.047,201.407 780.524,200.48 776.815,198.811C774.219,197.513 771.994,196.03 770.139,194.175C769.027,193.063 767.358,193.248 766.431,194.361L758.457,204.004C757.715,204.931 757.715,206.043 758.272,206.971C760.497,210.494 764.02,213.275 768.841,215.501C774.59,218.097 780.709,219.395 787.199,219.395C796.1,219.395 803.147,216.984 808.895,211.977C813.717,208.269 816.869,202.891 817.425,196.957C817.982,190.838 817.055,185.831 814.829,181.566C812.975,178.043 810.75,175.446 808.154,173.592C805.372,171.552 802.405,169.883 799.253,168.029C795.915,166.36 792.948,164.877 790.166,163.764C787.385,162.466 784.974,160.983 782.934,159.128C781.08,157.274 779.967,155.049 779.967,152.453C779.967,150.227 780.895,148.373 782.564,147.075C784.418,145.777 786.829,145.221 789.61,145.221C792.577,145.221 794.988,145.591 797.028,146.519C798.326,147.075 799.624,148.002 801.107,149.115C802.22,150.042 803.889,149.856 804.816,148.558L812.233,138.174C812.975,137.061 812.79,135.578 811.862,134.836C805.928,129.644 797.955,127.048 787.756,127.048C779.04,127.048 772.179,129.459 766.987,134.465C761.795,139.472 759.199,145.406 759.199,152.453C759.199,155.605 759.57,158.572 760.497,161.353C761.609,164.135 762.907,166.546 764.205,168.215C765.689,170.069 767.543,171.923 769.954,173.592C772.365,175.261 774.404,176.745 776.259,177.672C778.299,178.97 780.709,179.897 783.305,181.01Z" style="fill:rgb(29,29,27);fill-rule:nonzero;"/>
                    <path d="M870.459,216.057L889.003,158.201L907.732,216.057C908.103,217.169 909.03,217.726 910.143,217.726L925.163,217.726C926.275,217.726 927.203,216.984 927.573,215.871L951.309,131.869C951.68,130.2 950.567,128.717 948.899,128.717L935.547,128.717C934.435,128.717 933.322,129.459 933.136,130.571L917.745,187.5L900.314,130.571C899.944,129.459 899.016,128.717 897.904,128.717L881.771,128.717C880.658,128.717 879.731,129.459 879.36,130.571L862.486,187.685L847.28,130.757C846.909,129.644 845.982,128.902 844.869,128.902L828.18,128.902C826.511,128.902 825.213,130.571 825.769,132.055L850.618,216.057C850.989,217.169 851.916,217.911 853.028,217.911L868.049,217.911C868.976,217.911 870.088,217.169 870.459,216.057Z" style="fill:rgb(29,29,27);fill-rule:nonzero;"/>
                    <path d="M968.37,217.911L982.648,217.911C984.132,217.911 985.244,216.798 985.244,215.315L985.244,131.127C985.244,129.644 984.132,128.531 982.648,128.531L968.37,128.531C966.886,128.531 965.773,129.644 965.773,131.127L965.773,215.13C965.773,216.613 966.886,217.911 968.37,217.911Z" style="fill:rgb(29,29,27);fill-rule:nonzero;"/>
                    <path d="M1027.52,181.01C1031.97,183.049 1035.31,185.275 1037.72,187.314C1039.95,189.354 1041.24,191.394 1041.24,193.619C1041.24,196.03 1040.32,197.884 1038.65,199.368C1036.98,200.666 1034.75,201.408 1031.97,201.408C1028.26,201.408 1024.74,200.48 1021.03,198.811C1018.44,197.513 1016.21,196.03 1014.36,194.176C1013.24,193.063 1011.57,193.248 1010.65,194.361L1002.67,204.004C1001.93,204.931 1001.93,206.043 1002.49,206.971C1004.71,210.494 1008.24,213.275 1013.06,215.501C1018.81,218.097 1024.93,219.395 1031.42,219.395C1040.32,219.395 1047.36,216.984 1053.11,211.977L1054.04,211.236C1058.86,206.6 1061.83,200.295 1061.83,193.805C1061.83,189.169 1060.9,185.089 1059.05,181.751C1057.19,178.228 1054.97,175.632 1052.37,173.778C1049.59,171.738 1046.62,170.069 1043.47,168.215C1040.13,166.546 1037.16,165.062 1034.38,163.95C1031.6,162.652 1029.19,161.168 1027.15,159.314C1025.3,157.459 1024.18,155.234 1024.18,152.638C1024.18,150.413 1025.11,148.558 1026.78,147.26C1028.63,145.962 1031.05,145.406 1033.83,145.406C1036.79,145.406 1039.2,145.777 1041.24,146.704C1042.54,147.26 1043.84,148.188 1045.32,149.3C1046.44,150.227 1048.11,150.042 1049.03,148.744L1056.45,138.36C1057.19,137.247 1057.01,135.763 1056.08,135.022C1050.15,129.829 1042.17,127.233 1031.97,127.233C1023.26,127.233 1016.4,129.644 1011.2,134.651C1006.01,139.658 1003.42,145.592 1003.42,152.638C1003.42,155.79 1003.79,158.757 1004.71,161.539C1005.83,164.32 1007.12,166.731 1008.42,168.4C1009.91,170.254 1011.76,172.109 1014.17,173.778C1016.58,175.447 1018.62,176.93 1020.48,177.857C1022.52,178.97 1024.93,179.897 1027.52,181.01Z" style="fill:rgb(29,29,27);fill-rule:nonzero;"/>
                    <path d="M1095.95,181.01C1100.4,183.049 1103.74,185.275 1106.15,187.314C1108.37,189.354 1109.67,191.394 1109.67,193.619C1109.67,196.03 1108.74,197.884 1107.07,199.368C1105.41,200.666 1103.18,201.408 1100.4,201.408C1096.69,201.408 1093.17,200.48 1089.46,198.811C1086.86,197.513 1084.64,196.03 1082.78,194.176C1081.67,193.063 1080,193.248 1079.07,194.361L1071.1,204.004C1070.36,204.931 1070.36,206.043 1070.91,206.971C1073.14,210.494 1076.66,213.275 1081.48,215.501C1087.23,218.097 1093.35,219.395 1099.84,219.395C1108.74,219.395 1115.79,216.984 1121.54,211.977L1122.47,211.236C1127.29,206.6 1130.25,200.295 1130.25,193.805C1130.25,189.169 1129.33,185.089 1127.47,181.751C1125.62,178.228 1123.39,175.632 1120.8,173.778C1118.01,171.738 1115.05,170.069 1111.9,168.215C1108.56,166.546 1105.59,165.062 1102.81,163.95C1100.03,162.652 1097.62,161.168 1095.58,159.314C1093.72,157.459 1092.61,155.234 1092.61,152.638C1092.61,150.413 1093.54,148.558 1095.21,147.26C1097.06,145.962 1099.47,145.406 1102.25,145.406C1105.22,145.406 1107.63,145.777 1109.67,146.704C1110.97,147.26 1112.27,148.188 1113.75,149.3C1114.86,150.227 1116.53,150.042 1117.46,148.744L1124.88,138.36C1125.62,137.247 1125.43,135.763 1124.51,135.022C1118.57,129.829 1110.6,127.233 1100.4,127.233C1091.68,127.233 1084.82,129.644 1079.63,134.651C1074.44,139.658 1071.84,145.592 1071.84,152.638C1071.84,155.79 1072.21,158.757 1073.14,161.539C1074.25,164.32 1075.55,166.731 1076.85,168.4C1078.33,170.254 1080.19,172.109 1082.6,173.778C1085.01,175.447 1087.05,176.93 1088.9,177.857C1091.13,178.97 1093.35,179.897 1095.95,181.01Z" style="fill:rgb(29,29,27);fill-rule:nonzero;"/>
                    <path d="M459.719,181.009C464.17,183.049 467.508,185.274 469.918,187.314C472.144,189.354 473.442,191.394 473.442,193.619C473.442,196.03 472.514,197.884 470.845,199.368C469.177,200.666 466.951,201.407 464.17,201.407C460.461,201.407 456.938,200.48 453.229,198.811C450.633,197.513 448.408,196.03 446.553,194.175C445.441,193.063 443.772,193.248 442.845,194.361L434.871,204.003C434.129,204.931 434.129,206.043 434.686,206.97C436.911,210.494 440.434,213.275 445.255,215.5C451.004,218.097 457.123,219.395 463.614,219.395C472.514,219.395 479.561,216.984 485.309,211.977L486.051,211.235C490.872,206.6 493.839,200.295 494.025,193.619C494.025,188.983 493.098,184.904 491.243,181.38C489.389,177.857 487.164,175.261 484.568,173.407C481.786,171.367 478.819,169.698 475.667,167.844C472.329,166.175 469.362,164.691 466.58,163.579C463.799,162.28 461.388,160.797 459.349,158.943C457.494,157.088 456.382,154.863 456.382,152.267C456.382,150.042 457.309,148.187 458.978,146.889C460.832,145.591 463.243,145.035 466.024,145.035C468.991,145.035 471.402,145.406 473.442,146.333C474.74,146.889 476.038,147.817 477.521,148.929C478.634,149.856 480.303,149.671 481.23,148.373L488.647,137.988C489.389,136.876 489.204,135.392 488.276,134.651C482.342,129.458 474.369,126.862 464.17,126.862C455.454,126.862 448.593,129.273 443.401,134.28C438.209,139.286 435.613,145.22 435.613,152.267C435.613,155.419 435.984,158.386 436.911,161.168C438.023,163.949 439.321,166.36 440.62,168.029C442.103,169.883 443.957,171.738 446.368,173.407C448.779,175.076 450.818,176.559 452.673,177.486C454.898,178.97 457.123,179.897 459.719,181.009Z" style="fill:rgb(29,29,27);fill-rule:nonzero;"/>
                    <path d="M222.547,153.936L173.222,203.262L143.181,173.222L173.222,143.181L182.123,152.082C184.348,154.307 187.315,155.605 190.467,155.605C193.619,155.605 196.586,154.307 198.812,152.082L211.607,139.287C216.243,134.651 216.243,127.234 211.607,122.783L181.566,92.928C179.341,90.703 176.374,89.405 173.222,89.405C170.069,89.405 167.102,90.703 164.877,92.928L92.928,164.877C88.292,169.513 88.292,176.93 92.928,181.381L165.062,253.515C167.288,255.74 170.255,257.038 173.407,257.038C176.559,257.038 179.526,255.74 181.752,253.515L243.316,191.765L251.846,183.235L222.547,153.936Z" style="fill:rgb(251,186,0);fill-rule:nonzero;"/>
                    <path d="M372.38,181.566L300.246,253.7C298.021,255.926 295.054,257.224 291.901,257.224C288.749,257.224 285.782,255.926 283.557,253.7L253.887,223.66C249.251,219.024 249.251,211.607 253.887,207.156L266.682,194.361C268.907,192.136 271.874,191.023 275.027,191.023C278.179,191.023 281.146,192.321 283.371,194.361L292.272,203.262L322.313,173.221L292.087,143.181L247.397,187.871C247.211,188.056 247.026,188.242 246.84,188.427C242.946,192.136 237.939,193.99 232.747,193.99C227.184,193.99 221.992,191.765 218.098,187.871C214.204,183.977 211.979,178.785 211.979,173.221C211.979,167.844 213.833,163.023 217.542,159.128L283.927,92.743C286.153,90.517 289.12,89.219 292.272,89.219C295.424,89.219 298.391,90.517 300.617,92.743L372.751,164.877C377.016,169.513 377.016,176.93 372.38,181.566Z" style="fill:rgb(227,6,19);fill-rule:nonzero;"/>
                </g>
            </g>
        </g>
    </g>
</svg>
